<?xml version="1.0" encoding="UTF-8" standalone="no"?>
<!DOCTYPE svg PUBLIC "-//W3C//DTD SVG 1.1//EN"
 "http://www.w3.org/Graphics/SVG/1.1/DTD/svg11.dtd">
<!-- Generated by graphviz version 2.43.0 (0)
 -->
<!-- Title: dependency&#45;cruiser output Pages: 1 -->
<svg width="596pt" height="732pt"
 viewBox="0.00 0.00 596.00 732.00" xmlns="http://www.w3.org/2000/svg" xmlns:xlink="http://www.w3.org/1999/xlink">
<g id="graph0" class="graph" transform="scale(1 1) rotate(0) translate(4 728)">
<title>dependency&#45;cruiser output</title>
<polygon fill="white" stroke="transparent" points="-4,4 -4,-728 592,-728 592,4 -4,4"/>
<g id="clust1" class="cluster">
<title>cluster_src</title>
<path fill="#ffffff" stroke="black" stroke-width="2" d="M20,-8C20,-8 568,-8 568,-8 574,-8 580,-14 580,-20 580,-20 580,-704 580,-704 580,-710 574,-716 568,-716 568,-716 20,-716 20,-716 14,-716 8,-710 8,-704 8,-704 8,-20 8,-20 8,-14 14,-8 20,-8"/>
<text text-anchor="middle" x="294" y="-704.8" font-family="Helvetica,sans-Serif" font-weight="bold" font-size="9.00">src</text>
</g>
<g id="clust2" class="cluster">
<title>cluster_src/components</title>
<path fill="#ffffff" stroke="black" stroke-width="2" d="M162,-98C162,-98 468,-98 468,-98 474,-98 480,-104 480,-110 480,-110 480,-588 480,-588 480,-594 474,-600 468,-600 468,-600 162,-600 162,-600 156,-600 150,-594 150,-588 150,-588 150,-110 150,-110 150,-104 156,-98 162,-98"/>
<text text-anchor="middle" x="315" y="-588.8" font-family="Helvetica,sans-Serif" font-weight="bold" font-size="9.00">components</text>
</g>
<g id="clust3" class="cluster">
<title>cluster_src/components/Generic</title>
<path fill="#ffffff" stroke="black" stroke-width="2" d="M287,-106C287,-106 357,-106 357,-106 363,-106 369,-112 369,-118 369,-118 369,-206 369,-206 369,-212 363,-218 357,-218 357,-218 287,-218 287,-218 281,-218 275,-212 275,-206 275,-206 275,-118 275,-118 275,-112 281,-106 287,-106"/>
<text text-anchor="middle" x="322" y="-206.8" font-family="Helvetica,sans-Serif" font-weight="bold" font-size="9.00">Generic</text>
</g>
<g id="clust4" class="cluster">
<title>cluster_src/components/Item</title>
<path fill="#ffffff" stroke="black" stroke-width="2" d="M180,-226C180,-226 355,-226 355,-226 361,-226 367,-232 367,-238 367,-238 367,-296 367,-296 367,-302 361,-308 355,-308 355,-308 180,-308 180,-308 174,-308 168,-302 168,-296 168,-296 168,-238 168,-238 168,-232 174,-226 180,-226"/>
<text text-anchor="middle" x="267.5" y="-296.8" font-family="Helvetica,sans-Serif" font-weight="bold" font-size="9.00">Item</text>
</g>
<g id="clust5" class="cluster">
<title>cluster_src/components/Move</title>
<path fill="#ffffff" stroke="black" stroke-width="2" d="M179,-492C179,-492 356,-492 356,-492 362,-492 368,-498 368,-504 368,-504 368,-562 368,-562 368,-568 362,-574 356,-574 356,-574 179,-574 179,-574 173,-574 167,-568 167,-562 167,-562 167,-504 167,-504 167,-498 173,-492 179,-492"/>
<text text-anchor="middle" x="267.5" y="-562.8" font-family="Helvetica,sans-Serif" font-weight="bold" font-size="9.00">Move</text>
</g>
<g id="clust6" class="cluster">
<title>cluster_src/components/Pagination</title>
<path fill="#ffffff" stroke="black" stroke-width="2" d="M289,-316C289,-316 460,-316 460,-316 466,-316 472,-322 472,-328 472,-328 472,-356 472,-356 472,-362 466,-368 460,-368 460,-368 289,-368 289,-368 283,-368 277,-362 277,-356 277,-356 277,-328 277,-328 277,-322 283,-316 289,-316"/>
<text text-anchor="middle" x="374.5" y="-356.8" font-family="Helvetica,sans-Serif" font-weight="bold" font-size="9.00">Pagination</text>
</g>
<g id="clust7" class="cluster">
<title>cluster_src/components/Pokemon</title>
<path fill="#ffffff" stroke="black" stroke-width="2" d="M170,-402C170,-402 365,-402 365,-402 371,-402 377,-408 377,-414 377,-414 377,-472 377,-472 377,-478 371,-484 365,-484 365,-484 170,-484 170,-484 164,-484 158,-478 158,-472 158,-472 158,-414 158,-414 158,-408 164,-402 170,-402"/>
<text text-anchor="middle" x="267.5" y="-472.8" font-family="Helvetica,sans-Serif" font-weight="bold" font-size="9.00">Pokemon</text>
</g>
<g id="clust8" class="cluster">
<title>cluster_src/models</title>
<path fill="#ffffff" stroke="black" stroke-width="2" d="M500,-578C500,-578 560,-578 560,-578 566,-578 572,-584 572,-590 572,-590 572,-678 572,-678 572,-684 566,-690 560,-690 560,-690 500,-690 500,-690 494,-690 488,-684 488,-678 488,-678 488,-590 488,-590 488,-584 494,-578 500,-578"/>
<text text-anchor="middle" x="530" y="-678.8" font-family="Helvetica,sans-Serif" font-weight="bold" font-size="9.00">models</text>
</g>
<g id="clust9" class="cluster">
<title>cluster_src/services</title>
<path fill="#ffffff" stroke="black" stroke-width="2" d="M400,-608C400,-608 454,-608 454,-608 460,-608 466,-614 466,-620 466,-620 466,-678 466,-678 466,-684 460,-690 454,-690 454,-690 400,-690 400,-690 394,-690 388,-684 388,-678 388,-678 388,-620 388,-620 388,-614 394,-608 400,-608"/>
<text text-anchor="middle" x="427" y="-678.8" font-family="Helvetica,sans-Serif" font-weight="bold" font-size="9.00">services</text>
</g>
<!-- src/App.css -->
<g id="node1" class="node">
<title>src/App.css</title>
<g id="a_node1"><a xlink:href="src/App.css" xlink:title="App.css">
<path fill="#ffffcc" stroke="black" d="M233.5,-90C233.5,-90 191.5,-90 191.5,-90 188.5,-90 185.5,-87 185.5,-84 185.5,-84 185.5,-78 185.5,-78 185.5,-75 188.5,-72 191.5,-72 191.5,-72 233.5,-72 233.5,-72 236.5,-72 239.5,-75 239.5,-78 239.5,-78 239.5,-84 239.5,-84 239.5,-87 236.5,-90 233.5,-90"/>
<text text-anchor="start" x="194.5" y="-78.8" font-family="Helvetica,sans-Serif" font-size="9.00">App.css</text>
</a>
</g>
</g>
<!-- src/App.js -->
<g id="node2" class="node">
<title>src/App.js</title>
<g id="a_node2"><a xlink:href="src/App.js" xlink:title="App.js">
<path fill="#ffffcc" stroke="black" d="M133.5,-267C133.5,-267 91.5,-267 91.5,-267 88.5,-267 85.5,-264 85.5,-261 85.5,-261 85.5,-255 85.5,-255 85.5,-252 88.5,-249 91.5,-249 91.5,-249 133.5,-249 133.5,-249 136.5,-249 139.5,-252 139.5,-255 139.5,-255 139.5,-261 139.5,-261 139.5,-264 136.5,-267 133.5,-267"/>
<text text-anchor="start" x="98.5" y="-255.8" font-family="Helvetica,sans-Serif" font-size="9.00">App.js</text>
</a>
</g>
</g>
<!-- src/App.js&#45;&gt;src/App.css -->
<g id="edge1" class="edge">
<title>src/App.js&#45;&gt;src/App.css</title>
<path fill="none" stroke="#000000" stroke-width="2" stroke-opacity="0.200000" d="M114.28,-248.93C117.11,-217.97 127.89,-117.19 150,-95 157.69,-87.28 168.69,-83.45 179.26,-81.65"/>
<polygon fill="#000000" fill-opacity="0.200000" stroke="#000000" stroke-width="2" stroke-opacity="0.200000" points="179.75,-83.7 185.41,-80.81 179.19,-79.54 179.75,-83.7"/>
</g>
<!-- src/components/ContentBox.jsx -->
<g id="node3" class="node">
<title>src/components/ContentBox.jsx</title>
<g id="a_node3"><a xlink:href="src/components/ContentBox.jsx" xlink:title="ContentBox.jsx">
<path fill="#ffff77" stroke="black" d="M463,-158C463,-158 391,-158 391,-158 388,-158 385,-155 385,-152 385,-152 385,-146 385,-146 385,-143 388,-140 391,-140 391,-140 463,-140 463,-140 466,-140 469,-143 469,-146 469,-146 469,-152 469,-152 469,-155 466,-158 463,-158"/>
<text text-anchor="start" x="393" y="-146.8" font-family="Helvetica,sans-Serif" font-size="9.00">ContentBox.jsx</text>
</a>
</g>
</g>
<!-- src/App.js&#45;&gt;src/components/ContentBox.jsx -->
<g id="edge2" class="edge">
<title>src/App.js&#45;&gt;src/components/ContentBox.jsx</title>
<path fill="none" stroke="#000000" stroke-width="2" stroke-opacity="0.200000" d="M113.41,-248.75C113.26,-208.83 114.9,-52.09 150,-22 236.55,52.19 373.68,-89.4 414.3,-135.32"/>
<polygon fill="#000000" fill-opacity="0.200000" stroke="#000000" stroke-width="2" stroke-opacity="0.200000" points="412.81,-136.81 418.35,-139.94 415.97,-134.04 412.81,-136.81"/>
</g>
<!-- src/components/Generic/About.jsx -->
<g id="node4" class="node">
<title>src/components/Generic/About.jsx</title>
<g id="a_node4"><a xlink:href="src/components/Generic/About.jsx" xlink:title="About.jsx">
<path fill="#ffff77" stroke="black" d="M345.5,-132C345.5,-132 298.5,-132 298.5,-132 295.5,-132 292.5,-129 292.5,-126 292.5,-126 292.5,-120 292.5,-120 292.5,-117 295.5,-114 298.5,-114 298.5,-114 345.5,-114 345.5,-114 348.5,-114 351.5,-117 351.5,-120 351.5,-120 351.5,-126 351.5,-126 351.5,-129 348.5,-132 345.5,-132"/>
<text text-anchor="start" x="300.5" y="-120.8" font-family="Helvetica,sans-Serif" font-size="9.00">About.jsx</text>
</a>
</g>
</g>
<!-- src/App.js&#45;&gt;src/components/Generic/About.jsx -->
<g id="edge3" class="edge">
<title>src/App.js&#45;&gt;src/components/Generic/About.jsx</title>
<path fill="none" stroke="#000000" stroke-width="2" stroke-opacity="0.200000" d="M113.51,-248.78C113.77,-210.4 116.95,-64.06 150,-36 168.46,-20.32 240.45,-20.42 259,-36 284.57,-57.47 249.42,-85.4 272,-110 275.89,-114.24 280.99,-117.16 286.42,-119.16"/>
<polygon fill="#000000" fill-opacity="0.200000" stroke="#000000" stroke-width="2" stroke-opacity="0.200000" points="286.06,-121.24 292.41,-120.99 287.29,-117.23 286.06,-121.24"/>
</g>
<!-- src/components/Generic/Error.jsx -->
<g id="node5" class="node">
<title>src/components/Generic/Error.jsx</title>
<g id="a_node5"><a xlink:href="src/components/Generic/Error.jsx" xlink:title="Error.jsx">
<path fill="#ffff77" stroke="black" d="M343,-192C343,-192 301,-192 301,-192 298,-192 295,-189 295,-186 295,-186 295,-180 295,-180 295,-177 298,-174 301,-174 301,-174 343,-174 343,-174 346,-174 349,-177 349,-180 349,-180 349,-186 349,-186 349,-189 346,-192 343,-192"/>
<text text-anchor="start" x="303.5" y="-180.8" font-family="Helvetica,sans-Serif" font-size="9.00">Error.jsx</text>
</a>
</g>
</g>
<!-- src/App.js&#45;&gt;src/components/Generic/Error.jsx -->
<g id="edge4" class="edge">
<title>src/App.js&#45;&gt;src/components/Generic/Error.jsx</title>
<path fill="none" stroke="#000000" stroke-width="2" stroke-opacity="0.200000" d="M113.77,-248.61C115.02,-213.36 121.38,-89.69 150,-66 168.66,-50.55 240.82,-49.99 259,-66 293.3,-96.2 242.55,-133.05 272,-168 276.39,-173.21 282.54,-176.64 289,-178.9"/>
<polygon fill="#000000" fill-opacity="0.200000" stroke="#000000" stroke-width="2" stroke-opacity="0.200000" points="288.63,-180.98 294.98,-180.66 289.81,-176.95 288.63,-180.98"/>
</g>
<!-- src/components/Generic/PokeReact.jsx -->
<g id="node6" class="node">
<title>src/components/Generic/PokeReact.jsx</title>
<g id="a_node6"><a xlink:href="src/components/Generic/PokeReact.jsx" xlink:title="PokeReact.jsx">
<path fill="#ffff77" stroke="black" d="M355,-162C355,-162 289,-162 289,-162 286,-162 283,-159 283,-156 283,-156 283,-150 283,-150 283,-147 286,-144 289,-144 289,-144 355,-144 355,-144 358,-144 361,-147 361,-150 361,-150 361,-156 361,-156 361,-159 358,-162 355,-162"/>
<text text-anchor="start" x="291" y="-150.8" font-family="Helvetica,sans-Serif" font-size="9.00">PokeReact.jsx</text>
</a>
</g>
</g>
<!-- src/App.js&#45;&gt;src/components/Generic/PokeReact.jsx -->
<g id="edge5" class="edge">
<title>src/App.js&#45;&gt;src/components/Generic/PokeReact.jsx</title>
<path fill="none" stroke="#000000" stroke-width="2" stroke-opacity="0.200000" d="M113.63,-248.9C114.35,-212.36 119.11,-76.92 150,-51 168.56,-35.43 240.65,-35.19 259,-51 288.62,-76.52 246.49,-108.38 272,-138 273.7,-139.97 275.65,-141.69 277.77,-143.18"/>
<polygon fill="#000000" fill-opacity="0.200000" stroke="#000000" stroke-width="2" stroke-opacity="0.200000" points="276.76,-145.03 283,-146.28 278.91,-141.42 276.76,-145.03"/>
</g>
<!-- src/components/Item/Item.jsx -->
<g id="node7" class="node">
<title>src/components/Item/Item.jsx</title>
<g id="a_node7"><a xlink:href="src/components/Item/Item.jsx" xlink:title="Item.jsx">
<path fill="#ffff77" stroke="black" d="M233.5,-282C233.5,-282 191.5,-282 191.5,-282 188.5,-282 185.5,-279 185.5,-276 185.5,-276 185.5,-270 185.5,-270 185.5,-267 188.5,-264 191.5,-264 191.5,-264 233.5,-264 233.5,-264 236.5,-264 239.5,-267 239.5,-270 239.5,-270 239.5,-276 239.5,-276 239.5,-279 236.5,-282 233.5,-282"/>
<text text-anchor="start" x="194" y="-270.8" font-family="Helvetica,sans-Serif" font-size="9.00">Item.jsx</text>
</a>
</g>
</g>
<!-- src/App.js&#45;&gt;src/components/Item/Item.jsx -->
<g id="edge6" class="edge">
<title>src/App.js&#45;&gt;src/components/Item/Item.jsx</title>
<path fill="none" stroke="#000000" stroke-width="2" stroke-opacity="0.200000" d="M139.5,-261.98C151.69,-263.85 166.32,-266.09 179.21,-268.06"/>
<polygon fill="#000000" fill-opacity="0.200000" stroke="#000000" stroke-width="2" stroke-opacity="0.200000" points="179.12,-270.17 185.37,-269 179.76,-266.02 179.12,-270.17"/>
</g>
<!-- src/components/Item/ItemsList.jsx -->
<g id="node8" class="node">
<title>src/components/Item/ItemsList.jsx</title>
<g id="a_node8"><a xlink:href="src/components/Item/ItemsList.jsx" xlink:title="ItemsList.jsx">
<path fill="#ffff77" stroke="black" d="M243,-252C243,-252 182,-252 182,-252 179,-252 176,-249 176,-246 176,-246 176,-240 176,-240 176,-237 179,-234 182,-234 182,-234 243,-234 243,-234 246,-234 249,-237 249,-240 249,-240 249,-246 249,-246 249,-249 246,-252 243,-252"/>
<text text-anchor="start" x="184" y="-240.8" font-family="Helvetica,sans-Serif" font-size="9.00">ItemsList.jsx</text>
</a>
</g>
</g>
<!-- src/App.js&#45;&gt;src/components/Item/ItemsList.jsx -->
<g id="edge7" class="edge">
<title>src/App.js&#45;&gt;src/components/Item/ItemsList.jsx</title>
<path fill="none" stroke="#000000" stroke-width="2" stroke-opacity="0.200000" d="M139.5,-254.02C148.8,-252.6 159.51,-250.96 169.79,-249.38"/>
<polygon fill="#000000" fill-opacity="0.200000" stroke="#000000" stroke-width="2" stroke-opacity="0.200000" points="170.17,-251.45 175.78,-248.47 169.53,-247.3 170.17,-251.45"/>
</g>
<!-- src/components/Move/Move.jsx -->
<g id="node9" class="node">
<title>src/components/Move/Move.jsx</title>
<g id="a_node9"><a xlink:href="src/components/Move/Move.jsx" xlink:title="Move.jsx">
<path fill="#ffff77" stroke="black" d="M234,-548C234,-548 191,-548 191,-548 188,-548 185,-545 185,-542 185,-542 185,-536 185,-536 185,-533 188,-530 191,-530 191,-530 234,-530 234,-530 237,-530 240,-533 240,-536 240,-536 240,-542 240,-542 240,-545 237,-548 234,-548"/>
<text text-anchor="start" x="193" y="-536.8" font-family="Helvetica,sans-Serif" font-size="9.00">Move.jsx</text>
</a>
</g>
</g>
<!-- src/App.js&#45;&gt;src/components/Move/Move.jsx -->
<g id="edge8" class="edge">
<title>src/App.js&#45;&gt;src/components/Move/Move.jsx</title>
<path fill="none" stroke="#000000" stroke-width="2" stroke-opacity="0.200000" d="M136.55,-267.11C138.68,-268.78 140.58,-270.72 142,-273 156.8,-296.65 132.42,-502.33 150,-524 157.01,-532.64 168.1,-536.79 178.94,-538.66"/>
<polygon fill="#000000" fill-opacity="0.200000" stroke="#000000" stroke-width="2" stroke-opacity="0.200000" points="178.68,-540.74 184.91,-539.47 179.25,-536.58 178.68,-540.74"/>
</g>
<!-- src/components/Move/MovesList.jsx -->
<g id="node10" class="node">
<title>src/components/Move/MovesList.jsx</title>
<g id="a_node10"><a xlink:href="src/components/Move/MovesList.jsx" xlink:title="MovesList.jsx">
<path fill="#ffff77" stroke="black" d="M244,-518C244,-518 181,-518 181,-518 178,-518 175,-515 175,-512 175,-512 175,-506 175,-506 175,-503 178,-500 181,-500 181,-500 244,-500 244,-500 247,-500 250,-503 250,-506 250,-506 250,-512 250,-512 250,-515 247,-518 244,-518"/>
<text text-anchor="start" x="183" y="-506.8" font-family="Helvetica,sans-Serif" font-size="9.00">MovesList.jsx</text>
</a>
</g>
</g>
<!-- src/App.js&#45;&gt;src/components/Move/MovesList.jsx -->
<g id="edge9" class="edge">
<title>src/App.js&#45;&gt;src/components/Move/MovesList.jsx</title>
<path fill="none" stroke="#000000" stroke-width="2" stroke-opacity="0.200000" d="M136.54,-267.12C138.67,-268.78 140.57,-270.73 142,-273 154.68,-293.14 135.94,-467.81 150,-487 154.75,-493.49 161.59,-498.07 169,-501.3"/>
<polygon fill="#000000" fill-opacity="0.200000" stroke="#000000" stroke-width="2" stroke-opacity="0.200000" points="168.39,-503.32 174.75,-503.52 169.91,-499.4 168.39,-503.32"/>
</g>
<!-- src/components/Navbar.jsx -->
<g id="node11" class="node">
<title>src/components/Navbar.jsx</title>
<g id="a_node11"><a xlink:href="src/components/Navbar.jsx" xlink:title="Navbar.jsx">
<path fill="#ffff77" stroke="black" d="M238,-334C238,-334 187,-334 187,-334 184,-334 181,-331 181,-328 181,-328 181,-322 181,-322 181,-319 184,-316 187,-316 187,-316 238,-316 238,-316 241,-316 244,-319 244,-322 244,-322 244,-328 244,-328 244,-331 241,-334 238,-334"/>
<text text-anchor="start" x="189" y="-322.8" font-family="Helvetica,sans-Serif" font-size="9.00">Navbar.jsx</text>
</a>
</g>
</g>
<!-- src/App.js&#45;&gt;src/components/Navbar.jsx -->
<g id="edge10" class="edge">
<title>src/App.js&#45;&gt;src/components/Navbar.jsx</title>
<path fill="none" stroke="#000000" stroke-width="2" stroke-opacity="0.200000" d="M135.89,-267.17C138.2,-268.84 140.31,-270.77 142,-273 152.4,-286.77 137.9,-298.7 150,-311 156.61,-317.72 165.74,-321.51 174.94,-323.57"/>
<polygon fill="#000000" fill-opacity="0.200000" stroke="#000000" stroke-width="2" stroke-opacity="0.200000" points="174.68,-325.66 180.97,-324.69 175.45,-321.53 174.68,-325.66"/>
</g>
<!-- src/components/Pokemon/Pokemon.jsx -->
<g id="node12" class="node">
<title>src/components/Pokemon/Pokemon.jsx</title>
<g id="a_node12"><a xlink:href="src/components/Pokemon/Pokemon.jsx" xlink:title="Pokemon.jsx">
<path fill="#ffff77" stroke="black" d="M243,-458C243,-458 182,-458 182,-458 179,-458 176,-455 176,-452 176,-452 176,-446 176,-446 176,-443 179,-440 182,-440 182,-440 243,-440 243,-440 246,-440 249,-443 249,-446 249,-446 249,-452 249,-452 249,-455 246,-458 243,-458"/>
<text text-anchor="start" x="184" y="-446.8" font-family="Helvetica,sans-Serif" font-size="9.00">Pokemon.jsx</text>
</a>
</g>
</g>
<!-- src/App.js&#45;&gt;src/components/Pokemon/Pokemon.jsx -->
<g id="edge11" class="edge">
<title>src/App.js&#45;&gt;src/components/Pokemon/Pokemon.jsx</title>
<path fill="none" stroke="#000000" stroke-width="2" stroke-opacity="0.200000" d="M136.51,-267.13C138.65,-268.8 140.56,-270.74 142,-273 151.63,-288.1 138.59,-420.19 150,-434 155.08,-440.14 162.21,-444.01 169.83,-446.4"/>
<polygon fill="#000000" fill-opacity="0.200000" stroke="#000000" stroke-width="2" stroke-opacity="0.200000" points="169.39,-448.45 175.73,-447.95 170.46,-444.39 169.39,-448.45"/>
</g>
<!-- src/components/Pokemon/PokemonsList.jsx -->
<g id="node13" class="node">
<title>src/components/Pokemon/PokemonsList.jsx</title>
<g id="a_node13"><a xlink:href="src/components/Pokemon/PokemonsList.jsx" xlink:title="PokemonsList.jsx">
<path fill="#ffff77" stroke="black" d="M253,-428C253,-428 172,-428 172,-428 169,-428 166,-425 166,-422 166,-422 166,-416 166,-416 166,-413 169,-410 172,-410 172,-410 253,-410 253,-410 256,-410 259,-413 259,-416 259,-416 259,-422 259,-422 259,-425 256,-428 253,-428"/>
<text text-anchor="start" x="174" y="-416.8" font-family="Helvetica,sans-Serif" font-size="9.00">PokemonsList.jsx</text>
</a>
</g>
</g>
<!-- src/App.js&#45;&gt;src/components/Pokemon/PokemonsList.jsx -->
<g id="edge12" class="edge">
<title>src/App.js&#45;&gt;src/components/Pokemon/PokemonsList.jsx</title>
<path fill="none" stroke="#000000" stroke-width="2" stroke-opacity="0.200000" d="M136.49,-267.15C138.63,-268.81 140.54,-270.75 142,-273 158.06,-297.88 130.67,-383.57 150,-406 152.82,-409.28 156.25,-411.85 160.02,-413.86"/>
<polygon fill="#000000" fill-opacity="0.200000" stroke="#000000" stroke-width="2" stroke-opacity="0.200000" points="159.43,-415.9 165.76,-416.42 161.13,-412.06 159.43,-415.9"/>
</g>
<!-- src/components/Generic/Error.jsx&#45;&gt;src/components/ContentBox.jsx -->
<g id="edge13" class="edge">
<title>src/components/Generic/Error.jsx&#45;&gt;src/components/ContentBox.jsx</title>
<path fill="none" stroke="#000000" stroke-width="2" stroke-opacity="0.200000" d="M349.25,-176.27C358.12,-173.85 368.04,-170.97 377,-168 383.9,-165.71 391.25,-163 398.11,-160.36"/>
<polygon fill="#000000" fill-opacity="0.200000" stroke="#000000" stroke-width="2" stroke-opacity="0.200000" points="398.9,-162.31 403.73,-158.17 397.37,-158.4 398.9,-162.31"/>
</g>
<!-- src/services/pokeapi.js -->
<g id="node15" class="node">
<title>src/services/pokeapi.js</title>
<g id="a_node15"><a xlink:href="src/services/pokeapi.js" xlink:title="pokeapi.js">
<path fill="#ffffcc" stroke="black" d="M452,-664C452,-664 402,-664 402,-664 399,-664 396,-661 396,-658 396,-658 396,-652 396,-652 396,-649 399,-646 402,-646 402,-646 452,-646 452,-646 455,-646 458,-649 458,-652 458,-652 458,-658 458,-658 458,-661 455,-664 452,-664"/>
<text text-anchor="start" x="404" y="-652.8" font-family="Helvetica,sans-Serif" font-size="9.00">pokeapi.js</text>
</a>
</g>
</g>
<!-- src/components/Item/Item.jsx&#45;&gt;src/services/pokeapi.js -->
<g id="edge14" class="edge">
<title>src/components/Item/Item.jsx&#45;&gt;src/services/pokeapi.js</title>
<path fill="none" stroke="#000000" stroke-width="2" stroke-opacity="0.200000" d="M239.84,-274.86C247.13,-276.71 254.33,-280.06 259,-286 280.67,-313.53 248.51,-575.02 272,-601 303.61,-635.97 340.81,-585.79 377,-616 385.63,-623.2 377.17,-631.94 385,-640 386.63,-641.68 388.46,-643.16 390.42,-644.49"/>
<polygon fill="#000000" fill-opacity="0.200000" stroke="#000000" stroke-width="2" stroke-opacity="0.200000" points="389.61,-646.45 395.86,-647.62 391.7,-642.81 389.61,-646.45"/>
</g>
<!-- src/components/Item/ItemsList.jsx&#45;&gt;src/components/Generic/Error.jsx -->
<g id="edge18" class="edge">
<title>src/components/Item/ItemsList.jsx&#45;&gt;src/components/Generic/Error.jsx</title>
<path fill="none" stroke="#000000" stroke-width="2" stroke-opacity="0.200000" d="M249.26,-234.17C252.62,-232.93 255.91,-231.54 259,-230 276.76,-221.12 294.57,-206.94 306.51,-196.48"/>
<polygon fill="#000000" fill-opacity="0.200000" stroke="#000000" stroke-width="2" stroke-opacity="0.200000" points="308.17,-197.81 311.25,-192.25 305.38,-194.67 308.17,-197.81"/>
</g>
<!-- src/components/CardsContainer.jsx -->
<g id="node14" class="node">
<title>src/components/CardsContainer.jsx</title>
<g id="a_node14"><a xlink:href="src/components/CardsContainer.jsx" xlink:title="CardsContainer.jsx">
<path fill="#ffff77" stroke="black" d="M366,-394C366,-394 278,-394 278,-394 275,-394 272,-391 272,-388 272,-388 272,-382 272,-382 272,-379 275,-376 278,-376 278,-376 366,-376 366,-376 369,-376 372,-379 372,-382 372,-382 372,-388 372,-388 372,-391 369,-394 366,-394"/>
<text text-anchor="start" x="280" y="-382.8" font-family="Helvetica,sans-Serif" font-size="9.00">CardsContainer.jsx</text>
</a>
</g>
</g>
<!-- src/components/Item/ItemsList.jsx&#45;&gt;src/components/CardsContainer.jsx -->
<g id="edge17" class="edge">
<title>src/components/Item/ItemsList.jsx&#45;&gt;src/components/CardsContainer.jsx</title>
<path fill="none" stroke="#000000" stroke-width="2" stroke-opacity="0.200000" d="M249.37,-250.24C253.04,-252.24 256.37,-254.78 259,-258 290.92,-297.2 239.3,-332.45 272,-371 272.2,-371.24 272.4,-371.47 272.61,-371.7"/>
<polygon fill="#000000" fill-opacity="0.200000" stroke="#000000" stroke-width="2" stroke-opacity="0.200000" points="271.56,-373.57 277.44,-375.96 274.33,-370.42 271.56,-373.57"/>
</g>
<!-- src/components/Item/ItemsList.jsx&#45;&gt;src/services/pokeapi.js -->
<g id="edge16" class="edge">
<title>src/components/Item/ItemsList.jsx&#45;&gt;src/services/pokeapi.js</title>
<path fill="none" stroke="#000000" stroke-width="2" stroke-opacity="0.200000" d="M249.17,-249.82C252.97,-251.88 256.39,-254.55 259,-258 280.37,-286.31 249.45,-549.62 272,-577 302.49,-614.03 343.53,-567.64 377,-602 389.04,-614.36 373.7,-626.95 385,-640 386.67,-641.93 388.62,-643.62 390.74,-645.09"/>
<polygon fill="#000000" fill-opacity="0.200000" stroke="#000000" stroke-width="2" stroke-opacity="0.200000" points="389.7,-646.91 395.94,-648.13 391.82,-643.29 389.7,-646.91"/>
</g>
<!-- src/components/Item/ItemCard.jsx -->
<g id="node16" class="node">
<title>src/components/Item/ItemCard.jsx</title>
<g id="a_node16"><a xlink:href="src/components/Item/ItemCard.jsx" xlink:title="ItemCard.jsx">
<path fill="#ffff77" stroke="black" d="M353,-267C353,-267 291,-267 291,-267 288,-267 285,-264 285,-261 285,-261 285,-255 285,-255 285,-252 288,-249 291,-249 291,-249 353,-249 353,-249 356,-249 359,-252 359,-255 359,-255 359,-261 359,-261 359,-264 356,-267 353,-267"/>
<text text-anchor="start" x="293" y="-255.8" font-family="Helvetica,sans-Serif" font-size="9.00">ItemCard.jsx</text>
</a>
</g>
</g>
<!-- src/components/Item/ItemsList.jsx&#45;&gt;src/components/Item/ItemCard.jsx -->
<g id="edge20" class="edge">
<title>src/components/Item/ItemsList.jsx&#45;&gt;src/components/Item/ItemCard.jsx</title>
<path fill="none" stroke="#000000" stroke-width="2" stroke-opacity="0.200000" d="M249.3,-247.99C258.8,-249.32 269.16,-250.77 278.97,-252.14"/>
<polygon fill="#000000" fill-opacity="0.200000" stroke="#000000" stroke-width="2" stroke-opacity="0.200000" points="278.76,-254.23 284.99,-252.98 279.34,-250.07 278.76,-254.23"/>
</g>
<!-- src/components/Pagination/Paginator.jsx -->
<g id="node17" class="node">
<title>src/components/Pagination/Paginator.jsx</title>
<g id="a_node17"><a xlink:href="src/components/Pagination/Paginator.jsx" xlink:title="Paginator.jsx">
<path fill="#ffff77" stroke="black" d="M353,-342C353,-342 291,-342 291,-342 288,-342 285,-339 285,-336 285,-336 285,-330 285,-330 285,-327 288,-324 291,-324 291,-324 353,-324 353,-324 356,-324 359,-327 359,-330 359,-330 359,-336 359,-336 359,-339 356,-342 353,-342"/>
<text text-anchor="start" x="293" y="-330.8" font-family="Helvetica,sans-Serif" font-size="9.00">Paginator.jsx</text>
</a>
</g>
</g>
<!-- src/components/Item/ItemsList.jsx&#45;&gt;src/components/Pagination/Paginator.jsx -->
<g id="edge19" class="edge">
<title>src/components/Item/ItemsList.jsx&#45;&gt;src/components/Pagination/Paginator.jsx</title>
<path fill="none" stroke="#000000" stroke-width="2" stroke-opacity="0.200000" d="M249.43,-250.81C253,-252.71 256.29,-255.07 259,-258 275.47,-275.8 256.47,-292.37 272,-311 275.35,-315.02 279.58,-318.33 284.14,-321.05"/>
<polygon fill="#000000" fill-opacity="0.200000" stroke="#000000" stroke-width="2" stroke-opacity="0.200000" points="283.35,-323.01 289.63,-323.99 285.33,-319.3 283.35,-323.01"/>
</g>
<!-- src/components/Move/Move.jsx&#45;&gt;src/services/pokeapi.js -->
<g id="edge22" class="edge">
<title>src/components/Move/Move.jsx&#45;&gt;src/services/pokeapi.js</title>
<path fill="none" stroke="#000000" stroke-width="2" stroke-opacity="0.200000" d="M219.14,-548.22C228.41,-562.62 248.24,-590.42 272,-606 308.33,-629.83 357.06,-642.76 389.89,-649.26"/>
<polygon fill="#000000" fill-opacity="0.200000" stroke="#000000" stroke-width="2" stroke-opacity="0.200000" points="389.55,-651.33 395.83,-650.4 390.34,-647.2 389.55,-651.33"/>
</g>
<!-- src/services/assets.js -->
<g id="node18" class="node">
<title>src/services/assets.js</title>
<g id="a_node18"><a xlink:href="src/services/assets.js" xlink:title="assets.js">
<path fill="#ffffcc" stroke="black" d="M448,-634C448,-634 406,-634 406,-634 403,-634 400,-631 400,-628 400,-628 400,-622 400,-622 400,-619 403,-616 406,-616 406,-616 448,-616 448,-616 451,-616 454,-619 454,-622 454,-622 454,-628 454,-628 454,-631 451,-634 448,-634"/>
<text text-anchor="start" x="408" y="-622.8" font-family="Helvetica,sans-Serif" font-size="9.00">assets.js</text>
</a>
</g>
</g>
<!-- src/components/Move/Move.jsx&#45;&gt;src/services/assets.js -->
<g id="edge21" class="edge">
<title>src/components/Move/Move.jsx&#45;&gt;src/services/assets.js</title>
<path fill="none" stroke="#000000" stroke-width="2" stroke-opacity="0.200000" d="M222.11,-548.22C232.79,-559.11 252.03,-576.99 272,-587 311.35,-606.72 361.6,-616.63 393.8,-621.29"/>
<polygon fill="#000000" fill-opacity="0.200000" stroke="#000000" stroke-width="2" stroke-opacity="0.200000" points="393.75,-623.4 399.99,-622.15 394.34,-619.24 393.75,-623.4"/>
</g>
<!-- src/components/Move/MovesList.jsx&#45;&gt;src/components/Generic/Error.jsx -->
<g id="edge27" class="edge">
<title>src/components/Move/MovesList.jsx&#45;&gt;src/components/Generic/Error.jsx</title>
<path fill="none" stroke="#000000" stroke-width="2" stroke-opacity="0.200000" d="M243.89,-499.91C249.81,-496.76 255.32,-492.56 259,-487 291.43,-438.02 245.52,-275.43 272,-223 277.82,-211.48 288.62,-202.11 298.6,-195.34"/>
<polygon fill="#000000" fill-opacity="0.200000" stroke="#000000" stroke-width="2" stroke-opacity="0.200000" points="299.82,-197.06 303.72,-192.04 297.54,-193.53 299.82,-197.06"/>
</g>
<!-- src/components/Move/MovesList.jsx&#45;&gt;src/components/CardsContainer.jsx -->
<g id="edge26" class="edge">
<title>src/components/Move/MovesList.jsx&#45;&gt;src/components/CardsContainer.jsx</title>
<path fill="none" stroke="#000000" stroke-width="2" stroke-opacity="0.200000" d="M243.03,-499.88C249.14,-496.71 254.95,-492.52 259,-487 282.41,-455.14 245.94,-428.73 272,-399 272.2,-398.77 272.41,-398.54 272.62,-398.31"/>
<polygon fill="#000000" fill-opacity="0.200000" stroke="#000000" stroke-width="2" stroke-opacity="0.200000" points="274.34,-399.61 277.52,-394.1 271.6,-396.42 274.34,-399.61"/>
</g>
<!-- src/components/Move/MovesList.jsx&#45;&gt;src/services/pokeapi.js -->
<g id="edge25" class="edge">
<title>src/components/Move/MovesList.jsx&#45;&gt;src/services/pokeapi.js</title>
<path fill="none" stroke="#000000" stroke-width="2" stroke-opacity="0.200000" d="M250.26,-516.72C253.58,-518.64 256.59,-521.03 259,-524 275.74,-544.68 252.9,-624.48 272,-643 288.18,-658.68 349.45,-658.95 389.66,-657.28"/>
<polygon fill="#000000" fill-opacity="0.200000" stroke="#000000" stroke-width="2" stroke-opacity="0.200000" points="390.02,-659.36 395.92,-657 389.83,-655.17 390.02,-659.36"/>
</g>
<!-- src/components/Move/MovesList.jsx&#45;&gt;src/components/Pagination/Paginator.jsx -->
<g id="edge28" class="edge">
<title>src/components/Move/MovesList.jsx&#45;&gt;src/components/Pagination/Paginator.jsx</title>
<path fill="none" stroke="#000000" stroke-width="2" stroke-opacity="0.200000" d="M243.72,-499.79C249.65,-496.65 255.2,-492.48 259,-487 276.93,-461.14 251.69,-370.03 272,-346 274.02,-343.61 276.43,-341.63 279.08,-339.99"/>
<polygon fill="#000000" fill-opacity="0.200000" stroke="#000000" stroke-width="2" stroke-opacity="0.200000" points="280.4,-341.68 284.81,-337.1 278.51,-337.93 280.4,-341.68"/>
</g>
<!-- src/components/Move/MoveCard.jsx -->
<g id="node19" class="node">
<title>src/components/Move/MoveCard.jsx</title>
<g id="a_node19"><a xlink:href="src/components/Move/MoveCard.jsx" xlink:title="MoveCard.jsx">
<path fill="#ffff77" stroke="black" d="M354,-548C354,-548 290,-548 290,-548 287,-548 284,-545 284,-542 284,-542 284,-536 284,-536 284,-533 287,-530 290,-530 290,-530 354,-530 354,-530 357,-530 360,-533 360,-536 360,-536 360,-542 360,-542 360,-545 357,-548 354,-548"/>
<text text-anchor="start" x="292" y="-536.8" font-family="Helvetica,sans-Serif" font-size="9.00">MoveCard.jsx</text>
</a>
</g>
</g>
<!-- src/components/Move/MovesList.jsx&#45;&gt;src/components/Move/MoveCard.jsx -->
<g id="edge29" class="edge">
<title>src/components/Move/MovesList.jsx&#45;&gt;src/components/Move/MoveCard.jsx</title>
<path fill="none" stroke="#000000" stroke-width="2" stroke-opacity="0.200000" d="M245.75,-518C257.34,-521.23 270.52,-524.91 282.58,-528.28"/>
<polygon fill="#000000" fill-opacity="0.200000" stroke="#000000" stroke-width="2" stroke-opacity="0.200000" points="282.05,-530.31 288.4,-529.9 283.18,-526.27 282.05,-530.31"/>
</g>
<!-- src/components/Pokemon/Pokemon.jsx&#45;&gt;src/services/pokeapi.js -->
<g id="edge32" class="edge">
<title>src/components/Pokemon/Pokemon.jsx&#45;&gt;src/services/pokeapi.js</title>
<path fill="none" stroke="#000000" stroke-width="2" stroke-opacity="0.200000" d="M228.94,-458.11C239.34,-465.15 252.32,-475.88 259,-489 273.18,-516.84 250.46,-606.37 272,-629 288.25,-646.07 353.82,-639.75 377,-644 381.09,-644.75 385.36,-645.6 389.6,-646.49"/>
<polygon fill="#000000" fill-opacity="0.200000" stroke="#000000" stroke-width="2" stroke-opacity="0.200000" points="389.45,-648.61 395.76,-647.82 390.33,-644.5 389.45,-648.61"/>
</g>
<!-- src/components/Pokemon/Pokemon.jsx&#45;&gt;src/services/assets.js -->
<g id="edge31" class="edge">
<title>src/components/Pokemon/Pokemon.jsx&#45;&gt;src/services/assets.js</title>
<path fill="none" stroke="#000000" stroke-width="2" stroke-opacity="0.200000" d="M228.73,-458.23C239.02,-465.31 251.96,-476.06 259,-489 277.89,-523.73 246.3,-546.96 272,-577 302.25,-612.36 358.11,-622.04 393.59,-624.48"/>
<polygon fill="#000000" fill-opacity="0.200000" stroke="#000000" stroke-width="2" stroke-opacity="0.200000" points="393.85,-626.6 399.97,-624.85 394.1,-622.41 393.85,-626.6"/>
</g>
<!-- src/components/Pokemon/PokemonsList.jsx&#45;&gt;src/components/Generic/Error.jsx -->
<g id="edge37" class="edge">
<title>src/components/Pokemon/PokemonsList.jsx&#45;&gt;src/components/Generic/Error.jsx</title>
<path fill="none" stroke="#000000" stroke-width="2" stroke-opacity="0.200000" d="M255.2,-409.79C256.58,-408.66 257.86,-407.4 259,-406 284.69,-374.34 253.23,-259.19 272,-223 277.94,-211.54 288.75,-202.18 298.71,-195.4"/>
<polygon fill="#000000" fill-opacity="0.200000" stroke="#000000" stroke-width="2" stroke-opacity="0.200000" points="299.92,-197.11 303.81,-192.09 297.64,-193.59 299.92,-197.11"/>
</g>
<!-- src/components/Pokemon/PokemonsList.jsx&#45;&gt;src/components/CardsContainer.jsx -->
<g id="edge36" class="edge">
<title>src/components/Pokemon/PokemonsList.jsx&#45;&gt;src/components/CardsContainer.jsx</title>
<path fill="none" stroke="#000000" stroke-width="2" stroke-opacity="0.200000" d="M248.05,-409.98C251.79,-408.75 255.5,-407.42 259,-406 265.08,-403.53 265.92,-401.47 272,-399 274.63,-397.93 277.37,-396.91 280.15,-395.94"/>
<polygon fill="#000000" fill-opacity="0.200000" stroke="#000000" stroke-width="2" stroke-opacity="0.200000" points="280.86,-397.92 285.89,-394.03 279.53,-393.94 280.86,-397.92"/>
</g>
<!-- src/components/Pokemon/PokemonsList.jsx&#45;&gt;src/services/pokeapi.js -->
<g id="edge35" class="edge">
<title>src/components/Pokemon/PokemonsList.jsx&#45;&gt;src/services/pokeapi.js</title>
<path fill="none" stroke="#000000" stroke-width="2" stroke-opacity="0.200000" d="M252.88,-428.24C255.18,-429.87 257.26,-431.77 259,-434 283.79,-465.81 244.5,-585.5 272,-615 304.14,-649.48 336.07,-606.62 377,-630 381.94,-632.82 380.38,-636.68 385,-640 386.66,-641.19 388.43,-642.3 390.26,-643.33"/>
<polygon fill="#000000" fill-opacity="0.200000" stroke="#000000" stroke-width="2" stroke-opacity="0.200000" points="389.61,-645.36 395.91,-646.18 391.5,-641.61 389.61,-645.36"/>
</g>
<!-- src/components/Pokemon/PokemonsList.jsx&#45;&gt;src/components/Pagination/Paginator.jsx -->
<g id="edge38" class="edge">
<title>src/components/Pokemon/PokemonsList.jsx&#45;&gt;src/components/Pagination/Paginator.jsx</title>
<path fill="none" stroke="#000000" stroke-width="2" stroke-opacity="0.200000" d="M254.55,-409.87C256.16,-408.72 257.65,-407.44 259,-406 277.66,-386.09 253.15,-365.73 272,-346 274.09,-343.81 276.51,-341.97 279.13,-340.43"/>
<polygon fill="#000000" fill-opacity="0.200000" stroke="#000000" stroke-width="2" stroke-opacity="0.200000" points="280.28,-342.21 284.73,-337.68 278.42,-338.44 280.28,-342.21"/>
</g>
<!-- src/components/Pokemon/PokemonCard.jsx -->
<g id="node21" class="node">
<title>src/components/Pokemon/PokemonCard.jsx</title>
<g id="a_node21"><a xlink:href="src/components/Pokemon/PokemonCard.jsx" xlink:title="PokemonCard.jsx">
<path fill="#ffff77" stroke="black" d="M363,-458C363,-458 281,-458 281,-458 278,-458 275,-455 275,-452 275,-452 275,-446 275,-446 275,-443 278,-440 281,-440 281,-440 363,-440 363,-440 366,-440 369,-443 369,-446 369,-446 369,-452 369,-452 369,-455 366,-458 363,-458"/>
<text text-anchor="start" x="283" y="-446.8" font-family="Helvetica,sans-Serif" font-size="9.00">PokemonCard.jsx</text>
</a>
</g>
</g>
<!-- src/components/Pokemon/PokemonsList.jsx&#45;&gt;src/components/Pokemon/PokemonCard.jsx -->
<g id="edge39" class="edge">
<title>src/components/Pokemon/PokemonsList.jsx&#45;&gt;src/components/Pokemon/PokemonCard.jsx</title>
<path fill="none" stroke="#000000" stroke-width="2" stroke-opacity="0.200000" d="M244.13,-428.05C253.1,-430.66 262.93,-433.48 272,-436 274.77,-436.77 277.63,-437.55 280.51,-438.34"/>
<polygon fill="#000000" fill-opacity="0.200000" stroke="#000000" stroke-width="2" stroke-opacity="0.200000" points="280.1,-440.4 286.44,-439.94 281.19,-436.35 280.1,-440.4"/>
</g>
<!-- src/models/item.js -->
<g id="node25" class="node">
<title>src/models/item.js</title>
<g id="a_node25"><a xlink:href="src/models/item.js" xlink:title="item.js">
<path fill="#ffffcc" stroke="black" d="M551,-664C551,-664 509,-664 509,-664 506,-664 503,-661 503,-658 503,-658 503,-652 503,-652 503,-649 506,-646 509,-646 509,-646 551,-646 551,-646 554,-646 557,-649 557,-652 557,-652 557,-658 557,-658 557,-661 554,-664 551,-664"/>
<text text-anchor="start" x="514.5" y="-652.8" font-family="Helvetica,sans-Serif" font-size="9.00">item.js</text>
</a>
</g>
</g>
<!-- src/services/pokeapi.js&#45;&gt;src/models/item.js -->
<g id="edge42" class="edge">
<title>src/services/pokeapi.js&#45;&gt;src/models/item.js</title>
<path fill="none" stroke="#000000" stroke-width="2" stroke-opacity="0.200000" d="M458.03,-655C470.11,-655 484.08,-655 496.4,-655"/>
<polygon fill="#000000" fill-opacity="0.200000" stroke="#000000" stroke-width="2" stroke-opacity="0.200000" points="496.68,-657.1 502.68,-655 496.68,-652.9 496.68,-657.1"/>
</g>
<!-- src/models/move.js -->
<g id="node26" class="node">
<title>src/models/move.js</title>
<g id="a_node26"><a xlink:href="src/models/move.js" xlink:title="move.js">
<path fill="#ffffcc" stroke="black" d="M551,-634C551,-634 509,-634 509,-634 506,-634 503,-631 503,-628 503,-628 503,-622 503,-622 503,-619 506,-616 509,-616 509,-616 551,-616 551,-616 554,-616 557,-619 557,-622 557,-622 557,-628 557,-628 557,-631 554,-634 551,-634"/>
<text text-anchor="start" x="512.5" y="-622.8" font-family="Helvetica,sans-Serif" font-size="9.00">move.js</text>
</a>
</g>
</g>
<!-- src/services/pokeapi.js&#45;&gt;src/models/move.js -->
<g id="edge43" class="edge">
<title>src/services/pokeapi.js&#45;&gt;src/models/move.js</title>
<path fill="none" stroke="#000000" stroke-width="2" stroke-opacity="0.200000" d="M458.27,-646.36C465.4,-644.3 472.98,-642.09 480,-640 485.45,-638.38 491.23,-636.63 496.84,-634.93"/>
<polygon fill="#000000" fill-opacity="0.200000" stroke="#000000" stroke-width="2" stroke-opacity="0.200000" points="497.71,-636.86 502.83,-633.1 496.48,-632.84 497.71,-636.86"/>
</g>
<!-- src/models/pokemon.js -->
<g id="node27" class="node">
<title>src/models/pokemon.js</title>
<g id="a_node27"><a xlink:href="src/models/pokemon.js" xlink:title="pokemon.js">
<path fill="#ffffcc" stroke="black" d="M558,-604C558,-604 502,-604 502,-604 499,-604 496,-601 496,-598 496,-598 496,-592 496,-592 496,-589 499,-586 502,-586 502,-586 558,-586 558,-586 561,-586 564,-589 564,-592 564,-592 564,-598 564,-598 564,-601 561,-604 558,-604"/>
<text text-anchor="start" x="504" y="-592.8" font-family="Helvetica,sans-Serif" font-size="9.00">pokemon.js</text>
</a>
</g>
</g>
<!-- src/services/pokeapi.js&#45;&gt;src/models/pokemon.js -->
<g id="edge44" class="edge">
<title>src/services/pokeapi.js&#45;&gt;src/models/pokemon.js</title>
<path fill="none" stroke="#000000" stroke-width="2" stroke-opacity="0.200000" d="M458.04,-651.8C466.08,-649.61 474.15,-645.97 480,-640 489.66,-630.14 478.69,-620.19 488,-610 488.84,-609.08 489.75,-608.21 490.7,-607.4"/>
<polygon fill="#000000" fill-opacity="0.200000" stroke="#000000" stroke-width="2" stroke-opacity="0.200000" points="492.16,-608.94 495.85,-603.76 489.73,-605.51 492.16,-608.94"/>
</g>
<!-- src/components/Item/ItemCard.jsx&#45;&gt;src/services/pokeapi.js -->
<g id="edge15" class="edge">
<title>src/components/Item/ItemCard.jsx&#45;&gt;src/services/pokeapi.js</title>
<path fill="none" stroke="#000000" stroke-width="2" stroke-opacity="0.200000" d="M336.57,-267.08C349.65,-276.73 368.66,-293.28 377,-313 384.08,-329.74 374.41,-625.23 385,-640 386.54,-642.15 388.42,-643.99 390.52,-645.57"/>
<polygon fill="#000000" fill-opacity="0.200000" stroke="#000000" stroke-width="2" stroke-opacity="0.200000" points="389.56,-647.44 395.77,-648.79 391.76,-643.86 389.56,-647.44"/>
</g>
<!-- src/components/Pagination/Elements.jsx -->
<g id="node20" class="node">
<title>src/components/Pagination/Elements.jsx</title>
<g id="a_node20"><a xlink:href="src/components/Pagination/Elements.jsx" xlink:title="Elements.jsx">
<path fill="#ffff77" stroke="black" d="M458,-342C458,-342 396,-342 396,-342 393,-342 390,-339 390,-336 390,-336 390,-330 390,-330 390,-327 393,-324 396,-324 396,-324 458,-324 458,-324 461,-324 464,-327 464,-330 464,-330 464,-336 464,-336 464,-339 461,-342 458,-342"/>
<text text-anchor="start" x="398" y="-330.8" font-family="Helvetica,sans-Serif" font-size="9.00">Elements.jsx</text>
</a>
</g>
</g>
<!-- src/components/Pagination/Paginator.jsx&#45;&gt;src/components/Pagination/Elements.jsx -->
<g id="edge30" class="edge">
<title>src/components/Pagination/Paginator.jsx&#45;&gt;src/components/Pagination/Elements.jsx</title>
<path fill="none" stroke="#000000" stroke-width="2" stroke-opacity="0.200000" d="M359.02,-333C366.98,-333 375.47,-333 383.65,-333"/>
<polygon fill="#000000" fill-opacity="0.200000" stroke="#000000" stroke-width="2" stroke-opacity="0.200000" points="383.82,-335.1 389.82,-333 383.82,-330.9 383.82,-335.1"/>
</g>
<!-- src/components/Move/MoveCard.jsx&#45;&gt;src/services/pokeapi.js -->
<g id="edge24" class="edge">
<title>src/components/Move/MoveCard.jsx&#45;&gt;src/services/pokeapi.js</title>
<path fill="none" stroke="#000000" stroke-width="2" stroke-opacity="0.200000" d="M335.98,-548.14C348.6,-557.77 367.26,-574.15 377,-593 386.73,-611.82 371.44,-623.72 385,-640 386.64,-641.97 388.55,-643.67 390.65,-645.16"/>
<polygon fill="#000000" fill-opacity="0.200000" stroke="#000000" stroke-width="2" stroke-opacity="0.200000" points="389.59,-646.97 395.82,-648.23 391.73,-643.36 389.59,-646.97"/>
</g>
<!-- src/components/Move/MoveCard.jsx&#45;&gt;src/services/assets.js -->
<g id="edge23" class="edge">
<title>src/components/Move/MoveCard.jsx&#45;&gt;src/services/assets.js</title>
<path fill="none" stroke="#000000" stroke-width="2" stroke-opacity="0.200000" d="M336.2,-548.13C347.34,-555.98 363.57,-567.78 377,-579 389.47,-589.41 402.87,-602.1 412.5,-611.52"/>
<polygon fill="#000000" fill-opacity="0.200000" stroke="#000000" stroke-width="2" stroke-opacity="0.200000" points="411.15,-613.14 416.9,-615.85 414.1,-610.14 411.15,-613.14"/>
</g>
<!-- src/components/Pokemon/PokemonCard.jsx&#45;&gt;src/services/pokeapi.js -->
<g id="edge34" class="edge">
<title>src/components/Pokemon/PokemonCard.jsx&#45;&gt;src/services/pokeapi.js</title>
<path fill="none" stroke="#000000" stroke-width="2" stroke-opacity="0.200000" d="M342.79,-458.06C354.94,-464.76 369.54,-475.13 377,-489 392.91,-518.6 365.03,-612.98 385,-640 386.57,-642.13 388.48,-643.95 390.59,-645.52"/>
<polygon fill="#000000" fill-opacity="0.200000" stroke="#000000" stroke-width="2" stroke-opacity="0.200000" points="389.64,-647.4 395.86,-648.72 391.83,-643.81 389.64,-647.4"/>
</g>
<!-- src/components/Pokemon/PokemonCard.jsx&#45;&gt;src/services/assets.js -->
<g id="edge33" class="edge">
<title>src/components/Pokemon/PokemonCard.jsx&#45;&gt;src/services/assets.js</title>
<path fill="none" stroke="#000000" stroke-width="2" stroke-opacity="0.200000" d="M340.21,-458.12C352.02,-465.16 367.25,-475.89 377,-489 405.31,-527.06 418.52,-583.04 423.5,-609.74"/>
<polygon fill="#000000" fill-opacity="0.200000" stroke="#000000" stroke-width="2" stroke-opacity="0.200000" points="421.48,-610.33 424.6,-615.87 425.61,-609.6 421.48,-610.33"/>
</g>
<!-- src/components/Search.jsx -->
<g id="node22" class="node">
<title>src/components/Search.jsx</title>
<g id="a_node22"><a xlink:href="src/components/Search.jsx" xlink:title="Search.jsx">
<path fill="#ccffcc" stroke="black" d="M238,-171C238,-171 187,-171 187,-171 184,-171 181,-168 181,-165 181,-165 181,-159 181,-159 181,-156 184,-153 187,-153 187,-153 238,-153 238,-153 241,-153 244,-156 244,-159 244,-159 244,-165 244,-165 244,-168 241,-171 238,-171"/>
<text text-anchor="start" x="189" y="-159.8" font-family="Helvetica,sans-Serif" font-size="9.00">Search.jsx</text>
</a>
</g>
</g>
<!-- src/index.css -->
<g id="node23" class="node">
<title>src/index.css</title>
<g id="a_node23"><a xlink:href="src/index.css" xlink:title="index.css">
<path fill="#ffffcc" stroke="black" d="M136,-297C136,-297 89,-297 89,-297 86,-297 83,-294 83,-291 83,-291 83,-285 83,-285 83,-282 86,-279 89,-279 89,-279 136,-279 136,-279 139,-279 142,-282 142,-285 142,-285 142,-291 142,-291 142,-294 139,-297 136,-297"/>
<text text-anchor="start" x="91" y="-285.8" font-family="Helvetica,sans-Serif" font-size="9.00">index.css</text>
</a>
</g>
</g>
<!-- src/index.js -->
<g id="node24" class="node">
<title>src/index.js</title>
<g id="a_node24"><a xlink:href="src/index.js" xlink:title="index.js">
<path fill="#ffffcc" stroke="black" d="M64,-282C64,-282 22,-282 22,-282 19,-282 16,-279 16,-276 16,-276 16,-270 16,-270 16,-267 19,-264 22,-264 22,-264 64,-264 64,-264 67,-264 70,-267 70,-270 70,-270 70,-276 70,-276 70,-279 67,-282 64,-282"/>
<text text-anchor="start" x="25.5" y="-270.8" font-family="Helvetica,sans-Serif" font-size="9.00">index.js</text>
</a>
</g>
</g>
<!-- src/index.js&#45;&gt;src/App.js -->
<g id="edge40" class="edge">
<title>src/index.js&#45;&gt;src/App.js</title>
<path fill="none" stroke="#000000" stroke-width="2" stroke-opacity="0.200000" d="M70.29,-267.16C73.19,-266.51 76.17,-265.85 79.13,-265.19"/>
<polygon fill="#000000" fill-opacity="0.200000" stroke="#000000" stroke-width="2" stroke-opacity="0.200000" points="79.77,-267.2 85.17,-263.85 78.86,-263.1 79.77,-267.2"/>
</g>
<!-- src/index.js&#45;&gt;src/index.css -->
<g id="edge41" class="edge">
<title>src/index.js&#45;&gt;src/index.css</title>
<path fill="none" stroke="#000000" stroke-width="2" stroke-opacity="0.200000" d="M70.29,-278.84C72.49,-279.33 74.74,-279.83 76.99,-280.33"/>
<polygon fill="#000000" fill-opacity="0.200000" stroke="#000000" stroke-width="2" stroke-opacity="0.200000" points="76.62,-282.4 82.94,-281.65 77.53,-278.3 76.62,-282.4"/>
</g>
</g>
</svg>
